<svg xmlns="http://www.w3.org/2000/svg" width="391.723" height="401.806" viewBox="0 0 391.723 401.806">
  <g id="Group_6" data-name="Group 6" transform="translate(-311.059 -395.17)">
    <g id="Group_1" data-name="Group 1" transform="translate(428.178 429.848)">
      <path id="Path_1" data-name="Path 1" d="M517.93,479.543a60.693,60.693,0,0,0-54.394-34.2,60.072,60.072,0,0,0-53.913,33.233l-25.48-12.834a88.874,88.874,0,0,1,159.494,1.436Z" transform="translate(-384.144 -416.81)" fill="#fff"/>
    </g>
    <path id="Path_2" data-name="Path 2" d="M527.169,472.375A60.314,60.314,0,1,1,407.737,470.3l-26.986-10.65a88.85,88.85,0,1,0,173.567,2.011Z" transform="translate(40.61 38.848)" fill="#fff"/>
    <path id="Path_3" data-name="Path 3" d="M578.985,530.235a99.289,99.289,0,1,1,0-22.643h24.582c-5.737-62.945-58.8-112.422-123.219-112.422a123.743,123.743,0,0,0,0,247.487c64.416,0,117.481-49.476,123.219-112.422Z" transform="translate(27.442 0)" fill="#fff"/>
    <g id="Group_2" data-name="Group 2" transform="translate(492.794 453.912)">
      <rect id="Rectangle_1" data-name="Rectangle 1" width="30" height="71.13" fill="#fff"/>
    </g>
    <g id="Group_3" data-name="Group 3" transform="translate(492.794 540.8)">
      <rect id="Rectangle_2" data-name="Rectangle 2" width="30" height="49.652" fill="#fff"/>
    </g>
    <g id="Group_4" data-name="Group 4" transform="translate(316.9 677.748)">
      <path id="Path_4" data-name="Path 4" d="M324.146,573.628v17.943h-2.09V573.628H314.7v-1.883h16.767v1.883Z" transform="translate(-314.704 -571.362)" fill="#fff"/>
      <path id="Path_5" data-name="Path 5" d="M346.269,591.571v-9.354H334.592v9.354H332.5V571.745h2.09v8.589h11.677v-8.589h2.088v19.826Z" transform="translate(-303.981 -571.362)" fill="#fff"/>
      <path id="Path_6" data-name="Path 6" d="M351.384,591.571V571.745h11.8v1.883h-9.708v6.766H362.3v1.824h-8.825v7.471h10.3v1.883Z" transform="translate(-292.604 -571.362)" fill="#fff"/>
      <path id="Path_7" data-name="Path 7" d="M384.852,592.1c-6.237,0-9.413-4.942-9.413-10.325s3.176-10.267,9.413-10.267,9.413,4.884,9.413,10.267S391.089,592.1,384.852,592.1Zm0-18.767c-4.795,0-7.266,4.029-7.266,8.471,0,4.383,2.471,8.472,7.266,8.472s7.266-4.03,7.266-8.472C392.118,577.419,389.647,573.331,384.852,573.331Z" transform="translate(-278.111 -571.506)" fill="#fff"/>
      <path id="Path_8" data-name="Path 8" d="M394.981,584.894V571.745h2.088v13.179c0,3.5,2.707,5.207,5.825,5.207,3.383,0,5.912-1.766,5.912-5.178V571.745h2.03v13.149c0,4.471-3.412,7.061-7.942,7.061C398.511,591.954,394.981,589.336,394.981,584.894Z" transform="translate(-266.337 -571.362)" fill="#fff"/>
      <path id="Path_9" data-name="Path 9" d="M421.654,573.628v17.943h-2.09V573.628H412.21v-1.883h16.767v1.883Z" transform="translate(-255.957 -571.362)" fill="#fff"/>
      <path id="Path_10" data-name="Path 10" d="M436.144,573.331c-2.942,0-4.264,1.324-4.264,3.176,0,5.237,11,3.03,11,10.03,0,3.62-3,5.561-6.971,5.561a8.781,8.781,0,0,1-7.149-3.176l1.558-1.442a6.759,6.759,0,0,0,5.649,2.795c3.059,0,4.737-1.353,4.737-3.354,0-5.795-11-3.176-11-10.089,0-2.735,1.853-5.325,6.381-5.325a7.968,7.968,0,0,1,6.62,3.03l-1.471,1.383A6.049,6.049,0,0,0,436.144,573.331Z" transform="translate(-245.985 -571.506)" fill="#fff"/>
      <path id="Path_11" data-name="Path 11" d="M453.434,573.628v17.943h-2.09V573.628H443.99v-1.883h16.767v1.883Z" transform="translate(-236.809 -571.362)" fill="#fff"/>
      <path id="Path_12" data-name="Path 12" d="M473.978,591.681l-2.413-6.09h-8.678l-2.381,6.09h-2.295l8.176-20.119h1.8l8.118,20.119Zm-6.767-17.091-3.618,9.208h7.267Z" transform="translate(-228.241 -571.472)" fill="#fff"/>
      <path id="Path_13" data-name="Path 13" d="M491.16,591.935l-12.294-16.267v16h-2.03V571.58h1.53l12.325,16.355V571.844h2.03v20.09Z" transform="translate(-217.02 -571.461)" fill="#fff"/>
      <path id="Path_14" data-name="Path 14" d="M502.913,591.571h-7.179V571.745h7.179c6.5,0,9.5,4.53,9.5,9.884C512.414,587.1,509.208,591.571,502.913,591.571Zm-.147-18h-4.942v16.179h4.942c4.971,0,7.5-3.383,7.5-8.089C510.267,576.747,507.354,573.569,502.766,573.569Z" transform="translate(-205.633 -571.362)" fill="#fff"/>
      <path id="Path_15" data-name="Path 15" d="M513.937,591.571V571.745h2.088v19.826Z" transform="translate(-194.666 -571.362)" fill="#fff"/>
      <path id="Path_16" data-name="Path 16" d="M538.556,591.935l-12.3-16.267v16h-2.03V571.58h1.53l12.325,16.355V571.844h2.03v20.09Z" transform="translate(-188.465 -571.461)" fill="#fff"/>
      <path id="Path_17" data-name="Path 17" d="M550.2,582.273h7.883v8.706A17.364,17.364,0,0,1,551.7,592.1c-6.44,0-9.766-3.883-9.766-10.266,0-5.295,2.824-10.327,8.944-10.327a8.828,8.828,0,0,1,7.149,3.266l-1.532,1.353a6.7,6.7,0,0,0-5.557-2.793c-4.737,0-6.856,4.264-6.856,8.471,0,5.089,2.264,8.472,7.8,8.472a12.1,12.1,0,0,0,4.207-.647V584.1H550.2Z" transform="translate(-177.796 -571.506)" fill="#fff"/>
      <path id="Path_18" data-name="Path 18" d="M333.632,619.113h-2.176l-4.5-16.091-4.559,16.091h-2.117l-5.354-19.974h2.293l4.3,16.767,4.588-16.767h1.854l4.647,16.706,4.235-16.706h2.207Z" transform="translate(-314.571 -554.857)" fill="#fff"/>
      <path id="Path_19" data-name="Path 19" d="M337.86,618.965V599.139h11.8v1.881H339.95v6.766h8.825v1.824H339.95v7.473h10.294v1.883Z" transform="translate(-300.753 -554.857)" fill="#fff"/>
      <path id="Path_20" data-name="Path 20" d="M361.259,618.965h-7.325V599.139h7.472c2.735,0,5.618,1.558,5.618,5.147a4.528,4.528,0,0,1-3.059,4.235,4.751,4.751,0,0,1,4.147,4.883C368.113,617.316,364.935,618.965,361.259,618.965Zm-.147-18.033h-5.09v6.854h5.061c2.295,0,3.852-1.176,3.852-3.383C364.935,602.256,363.466,600.932,361.112,600.932Zm-.236,8.589h-4.854v7.649h5c3.354,0,5-1.207,5-3.854C366.025,610.786,363.966,609.522,360.876,609.522Z" transform="translate(-291.068 -554.857)" fill="#fff"/>
      <path id="Path_21" data-name="Path 21" d="M377.263,600.724c-2.942,0-4.266,1.324-4.266,3.178,0,5.235,11,3.029,11,10.03,0,3.618-3,5.559-6.971,5.559a8.781,8.781,0,0,1-7.149-3.176l1.559-1.442a6.755,6.755,0,0,0,5.647,2.795c3.061,0,4.737-1.353,4.737-3.353,0-5.8-11-3.178-11-10.089,0-2.737,1.852-5.327,6.383-5.327a7.967,7.967,0,0,1,6.618,3.03l-1.471,1.383A6.048,6.048,0,0,0,377.263,600.724Z" transform="translate(-281.461 -555.002)" fill="#fff"/>
      <path id="Path_22" data-name="Path 22" d="M387.127,618.965V599.139h2.09v19.826Z" transform="translate(-271.069 -554.857)" fill="#fff"/>
      <path id="Path_23" data-name="Path 23" d="M405.212,601.02v17.945h-2.09V601.02H395.77v-1.881h16.765v1.881Z" transform="translate(-265.862 -554.857)" fill="#fff"/>
      <path id="Path_24" data-name="Path 24" d="M413.568,618.965V599.139h11.8v1.881h-9.706v6.766h8.825v1.824h-8.825v7.473h10.294v1.883Z" transform="translate(-255.138 -554.857)" fill="#fff"/>
      <path id="Path_25" data-name="Path 25" d="M446.565,598.9a8.822,8.822,0,0,1,7.149,3.267l-1.529,1.351a6.71,6.71,0,0,0-5.561-2.793c-4.735,0-6.854,4.264-6.854,8.471s2.118,8.472,6.854,8.472a6.708,6.708,0,0,0,5.561-2.795l1.529,1.354a8.825,8.825,0,0,1-7.149,3.264c-6.117,0-8.942-5.03-8.942-10.266C437.623,603.931,440.448,598.9,446.565,598.9Z" transform="translate(-240.645 -555.002)" fill="#fff"/>
      <path id="Path_26" data-name="Path 26" d="M463.4,619.491c-6.235,0-9.413-4.942-9.413-10.325S457.169,598.9,463.4,598.9s9.413,4.884,9.413,10.267S469.641,619.491,463.4,619.491Zm0-18.767c-4.795,0-7.266,4.03-7.266,8.471,0,4.384,2.471,8.472,7.266,8.472s7.264-4.029,7.264-8.472C470.668,604.812,468.2,600.724,463.4,600.724Z" transform="translate(-230.784 -555.002)" fill="#fff"/>
      <path id="Path_27" data-name="Path 27" d="M489.3,619.065V603.18l-6.118,9.854h-1.5l-6.118-9.618v15.65h-2.03V598.973h1.647l7.295,11.708,7.3-11.708h1.619v20.092Z" transform="translate(-219.01 -554.957)" fill="#fff"/>
      <path id="Path_28" data-name="Path 28" d="M500.633,611.552h-4.883v7.413h-2.09V599.139h7c3.913,0,6.561,2.351,6.561,6.117C507.223,609.168,504.782,611.552,500.633,611.552Zm-.058-10.62h-4.825v8.8h4.795c3.03,0,4.588-1.588,4.588-4.413A4.216,4.216,0,0,0,500.576,600.932Z" transform="translate(-206.882 -554.857)" fill="#fff"/>
      <path id="Path_29" data-name="Path 29" d="M522.656,619.076l-2.41-6.089h-8.677l-2.384,6.089h-2.293l8.176-20.121h1.795l8.12,20.121Zm-6.764-17.091-3.618,9.206h7.266Z" transform="translate(-198.911 -554.968)" fill="#fff"/>
      <path id="Path_30" data-name="Path 30" d="M539.841,619.33l-12.3-16.268v16h-2.029V598.973h1.529L539.37,615.33V599.239h2.03v20.09Z" transform="translate(-187.69 -554.957)" fill="#fff"/>
      <path id="Path_31" data-name="Path 31" d="M550.234,618.965V609.7l-7.471-10.561h2.558l6.032,8.53,6.03-8.53h2.5L552.323,609.7v9.266Z" transform="translate(-177.298 -554.857)" fill="#fff"/>
    </g>
    <g id="Group_5" data-name="Group 5" transform="translate(316.639 783.421)">
      <path id="Path_32" data-name="Path 32" d="M324.92,650.723V640.267l-4.029,6.485H319.9l-4.027-6.331v10.3h-1.337V637.5h1.083l4.8,7.708,4.8-7.708H326.3v13.227Z" transform="translate(-314.541 -637.419)" fill="#fff"/>
      <path id="Path_33" data-name="Path 33" d="M338.905,650.73l-1.586-4.008h-5.713l-1.569,4.008h-1.511l5.384-13.246h1.181l5.344,13.246Zm-4.453-11.251-2.381,6.062h4.783Z" transform="translate(-306.115 -637.426)" fill="#fff"/>
      <path id="Path_34" data-name="Path 34" d="M342.608,650.657V637.6h1.375v13.052Zm8.115,0-6.235-6.681,6.331-6.372h1.8l-6.351,6.352,6.371,6.7Z" transform="translate(-297.631 -637.353)" fill="#fff"/>
      <path id="Path_35" data-name="Path 35" d="M355.711,650.657V637.6h1.375v13.052Z" transform="translate(-289.736 -637.353)" fill="#fff"/>
      <path id="Path_36" data-name="Path 36" d="M373.737,650.9l-8.094-10.71v10.535h-1.337V637.5h1.008l8.113,10.769V637.671h1.337V650.9Z" transform="translate(-284.558 -637.419)" fill="#fff"/>
      <path id="Path_37" data-name="Path 37" d="M383.226,644.536h5.191v5.732a11.451,11.451,0,0,1-4.2.735c-4.24,0-6.429-2.554-6.429-6.759,0-3.484,1.859-6.8,5.888-6.8a5.815,5.815,0,0,1,4.707,2.149l-1.008.893a4.409,4.409,0,0,0-3.66-1.841c-3.117,0-4.511,2.807-4.511,5.578,0,3.351,1.49,5.577,5.131,5.577a7.975,7.975,0,0,0,2.769-.425v-3.642h-3.873Z" transform="translate(-276.437 -637.448)" fill="#fff"/>
      <path id="Path_38" data-name="Path 38" d="M403.483,650.657v-6.1l-4.92-6.952h1.686l3.969,5.615,3.969-5.615h1.647l-4.977,6.952v6.1Z" transform="translate(-263.918 -637.353)" fill="#fff"/>
      <path id="Path_39" data-name="Path 39" d="M417.174,651c-4.106,0-6.2-3.253-6.2-6.8s2.091-6.759,6.2-6.759,6.2,3.215,6.2,6.759S421.28,651,417.174,651Zm0-12.355c-3.155,0-4.783,2.654-4.783,5.578,0,2.886,1.628,5.577,4.783,5.577s4.785-2.652,4.785-5.577C421.959,641.341,420.331,638.648,417.174,638.648Z" transform="translate(-256.438 -637.448)" fill="#fff"/>
      <path id="Path_40" data-name="Path 40" d="M425.664,646.262V637.6h1.373v8.678c0,2.3,1.784,3.426,3.836,3.426,2.227,0,3.892-1.162,3.892-3.409v-8.7H436.1v8.657c0,2.944-2.248,4.647-5.229,4.647C427.988,650.909,425.664,649.186,425.664,646.262Z" transform="translate(-247.589 -637.353)" fill="#fff"/>
      <path id="Path_41" data-name="Path 41" d="M452.233,638.648c-1.936,0-2.808.872-2.808,2.091,0,3.447,7.243,2,7.243,6.6,0,2.381-1.976,3.66-4.59,3.66a5.782,5.782,0,0,1-4.707-2.09l1.027-.95a4.445,4.445,0,0,0,3.718,1.84c2.014,0,3.118-.889,3.118-2.208,0-3.816-7.243-2.09-7.243-6.641,0-1.8,1.22-3.506,4.2-3.506a5.25,5.25,0,0,1,4.357,1.994l-.969.912A3.983,3.983,0,0,0,452.233,638.648Z" transform="translate(-234.51 -637.448)" fill="#fff"/>
      <path id="Path_42" data-name="Path 42" d="M465.438,638.845v11.812h-1.377V638.845H459.22V637.6h11.038v1.24Z" transform="translate(-227.372 -637.353)" fill="#fff"/>
      <path id="Path_43" data-name="Path 43" d="M480.782,650.73l-1.588-4.008h-5.713l-1.569,4.008H470.4l5.384-13.246h1.181l5.346,13.246Zm-4.453-11.251-2.383,6.062h4.783Z" transform="translate(-220.635 -637.426)" fill="#fff"/>
      <path id="Path_44" data-name="Path 44" d="M493.915,650.9l-8.1-10.71v10.535h-1.336V637.5h1.008l8.115,10.769V637.671h1.337V650.9Z" transform="translate(-212.151 -637.419)" fill="#fff"/>
      <path id="Path_45" data-name="Path 45" d="M503.473,650.657h-4.726V637.6h4.726c4.28,0,6.256,2.982,6.256,6.508C509.729,647.714,507.617,650.657,503.473,650.657Zm-.1-11.852h-3.255v10.652h3.255c3.272,0,4.937-2.227,4.937-5.325C508.314,640.9,506.4,638.805,503.377,638.805Z" transform="translate(-203.557 -637.353)" fill="#fff"/>
      <path id="Path_46" data-name="Path 46" d="M525.82,651c-4.106,0-6.2-3.253-6.2-6.8s2.091-6.759,6.2-6.759,6.2,3.215,6.2,6.759S529.925,651,525.82,651Zm0-12.355c-3.157,0-4.783,2.654-4.783,5.578,0,2.886,1.627,5.577,4.783,5.577s4.783-2.652,4.783-5.577C530.6,641.341,528.977,638.648,525.82,638.648Z" transform="translate(-190.979 -637.448)" fill="#fff"/>
      <path id="Path_47" data-name="Path 47" d="M534.31,646.262V637.6h1.375v8.678c0,2.3,1.78,3.426,3.835,3.426,2.226,0,3.891-1.162,3.891-3.409v-8.7h1.336v8.657c0,2.944-2.245,4.647-5.227,4.647C536.634,650.909,534.31,649.186,534.31,646.262Z" transform="translate(-182.13 -637.353)" fill="#fff"/>
      <path id="Path_48" data-name="Path 48" d="M553.692,638.845v11.812h-1.377V638.845h-4.841V637.6h11.038v1.24Z" transform="translate(-174.199 -637.353)" fill="#fff"/>
    </g>
    <line id="Line_1" data-name="Line 1" x2="391.723" transform="translate(311.059 762.817)" fill="none" stroke="#fff" stroke-miterlimit="10" stroke-width="0.5"/>
  </g>
</svg>
