<svg xmlns="http://www.w3.org/2000/svg" width="48" height="48.102" viewBox="0 0 48 48.102">
  <g id="Group_19" data-name="Group 19" transform="translate(-356.606 -395.17)">
    <g id="Group_16" data-name="Group 16" transform="translate(365.183 401.91)">
      <path id="Path_511" data-name="Path 511" d="M410.147,429a11.8,11.8,0,0,0-10.572-6.648,11.676,11.676,0,0,0-10.479,6.459l-4.952-2.495a17.274,17.274,0,0,1,31,.279Z" transform="translate(-384.144 -416.81)" fill="#fff"/>
    </g>
    <path id="Path_512" data-name="Path 512" d="M407.365,462.122a11.723,11.723,0,1,1-23.213-.4l-5.245-2.07a17.269,17.269,0,1,0,33.735.391Z" transform="translate(-15.049 -44.395)" fill="#fff"/>
    <path id="Path_513" data-name="Path 513" d="M399.828,421.422a19.3,19.3,0,1,1,0-4.4h4.778a24.051,24.051,0,1,0,0,4.4Z" fill="#fff"/>
    <g id="Group_17" data-name="Group 17" transform="translate(377.742 406.587)">
      <rect id="Rectangle_12" data-name="Rectangle 12" width="5.831" height="13.825" transform="translate(0 0)" fill="#fff"/>
    </g>
    <g id="Group_18" data-name="Group 18" transform="translate(377.742 423.475)">
      <rect id="Rectangle_13" data-name="Rectangle 13" width="5.831" height="9.65" transform="translate(0 0)" fill="#fff"/>
    </g>
  </g>
</svg>
