<svg id="Layer_1" data-name="Layer 1" xmlns="http://www.w3.org/2000/svg" viewBox="0 0 906 810"><defs><style>.cls-1{fill:#fff;}.cls-2{fill:none;stroke:#fff;stroke-miterlimit:10;stroke-width:0.5px;}</style></defs><title>transparent-logo</title><path d="M-125-72V738H781V-72ZM329.49,0C437.38,0,526.26,82.87,535.87,188.29H494.7C485.26,105.49,414.78,41,329.5,41c-91.7,0-166.3,74.6-166.3,166.29s74.6,166.29,166.3,166.29c85.28,0,155.76-64.53,165.2-147.33h41.17C526.26,331.64,437.38,414.5,329.49,414.5c-114.28,0-207.25-93-207.25-207.25S215.21,0,329.49,0ZM238.83,161.52,196.15,140a148.85,148.85,0,0,1,267.13,2.4l-43,20.73a101.64,101.64,0,0,0-65.61-53.94v108.3H304.38V108.88A100.62,100.62,0,0,0,238.83,161.52Zm-8.89,29.37a101,101,0,0,0,74.44,113.63V243.91h50.24v60.7A101,101,0,0,0,430,194.37l45.46-18a148.69,148.69,0,0,1,3.09,30.26c0,82.05-66.75,148.81-148.8,148.81S180.9,288.73,180.9,206.68a148.57,148.57,0,0,1,3.84-33.62Z" transform="translate(124.96 72)"/><g id="Group_4" data-name="Group 4"><path id="Path_4" data-name="Path 4" class="cls-1" d="M25.6,477.07v30.05H22.1V477.07H9.78v-3.15H37.86v3.15Z" transform="translate(124.96 72)"/><path id="Path_5" data-name="Path 5" class="cls-1" d="M80.61,507.12V491.46H61.05v15.66h-3.5v-33.2h3.5V488.3H80.61V473.92h3.5v33.2Z" transform="translate(124.96 72)"/><path id="Path_6" data-name="Path 6" class="cls-1" d="M108.23,507.12v-33.2H128v3.15H111.73V488.4h14.78v3.06H111.73V504H129v3.15Z" transform="translate(124.96 72)"/><path id="Path_7" data-name="Path 7" class="cls-1" d="M188.55,473.27c-10.44,0-15.76,8.19-15.76,17.2s5.32,17.29,15.76,17.29,15.77-8.27,15.77-17.29S199,473.27,188.55,473.27Zm0,31.44c-8,0-12.17-6.85-12.17-14.19s4.14-14.19,12.17-14.19,12.18,6.85,12.17,14.19S196.58,504.71,188.55,504.71Z" transform="translate(124.96 72)"/><path id="Path_8" data-name="Path 8" class="cls-1" d="M225.24,495.94v-22h3.5V496c0,5.86,4.53,8.72,9.76,8.72,5.66,0,9.9-3,9.9-8.67V473.92h3.4v22c0,7.49-5.72,11.82-13.3,11.82C231.15,507.76,225.24,503.38,225.24,495.94Z" transform="translate(124.96 72)"/><path id="Path_9" data-name="Path 9" class="cls-1" d="M287.3,477.07v30.05h-3.5V477.07H271.48v-3.15h28.08v3.15Z" transform="translate(124.96 72)"/><path id="Path_10" data-name="Path 10" class="cls-1" d="M328.27,476.33c-4.93,0-7.14,2.22-7.14,5.32,0,8.77,18.42,5.08,18.42,16.8,0,6.06-5,9.32-11.67,9.32a14.72,14.72,0,0,1-12-5.32l2.61-2.42a11.3,11.3,0,0,0,9.46,4.68c5.13,0,7.94-2.26,7.94-5.62,0-9.7-18.43-5.32-18.43-16.9,0-4.58,3.1-8.92,10.69-8.92a13.36,13.36,0,0,1,11.09,5.08l-2.47,2.32A10.12,10.12,0,0,0,328.27,476.33Z" transform="translate(124.96 72)"/><path id="Path_11" data-name="Path 11" class="cls-1" d="M372.59,477.07v30.05h-3.5V477.07H356.78v-3.15h28.08v3.15Z" transform="translate(124.96 72)"/><path id="Path_12" data-name="Path 12" class="cls-1" d="M411.65,473.42h-3L395,507.12h3.84l4-10.2h14.53l4,10.2h3.9ZM404,493.92,410,478.5l6.12,15.42Z" transform="translate(124.96 72)"/><path id="Path_13" data-name="Path 13" class="cls-1" d="M468.92,507.57l-20.59-27.25v26.8h-3.4V473.47h2.57l20.64,27.4V473.92h3.4v33.65Z" transform="translate(124.96 72)"/><path id="Path_14" data-name="Path 14" class="cls-1" d="M507.68,473.92h-12v33.2h12c10.54,0,15.91-7.49,15.91-16.65C523.59,481.5,518.57,473.92,507.68,473.92Zm-.25,30.15h-8.27V477h8.27c7.69,0,12.57,5.32,12.57,13.55C520,498.4,515.76,504.07,507.43,504.07Z" transform="translate(124.96 72)"/><path id="Path_15" data-name="Path 15" class="cls-1" d="M544.51,507.12v-33.2H548v33.2Z" transform="translate(124.96 72)"/><path id="Path_16" data-name="Path 16" class="cls-1" d="M596.13,507.57l-20.59-27.25v26.8h-3.4V473.47h2.56l20.64,27.4V473.92h3.4v33.65Z" transform="translate(124.96 72)"/><path id="Path_17" data-name="Path 17" class="cls-1" d="M633.51,491.31h13.2v14.58A28.92,28.92,0,0,1,636,507.76c-10.79,0-16.36-6.5-16.36-17.19,0-8.87,4.73-17.3,15-17.3a14.77,14.77,0,0,1,12,5.47L644.05,481a11.22,11.22,0,0,0-9.31-4.68c-7.94,0-11.48,7.14-11.48,14.19,0,8.52,3.79,14.19,13,14.19a20.35,20.35,0,0,0,7.05-1.09v-9.26h-9.85Z" transform="translate(124.96 72)"/><path id="Path_18" data-name="Path 18" class="cls-1" d="M41.71,580.89H38.06l-7.54-26.95-7.63,26.95H19.34l-9-33.45h3.84l7.2,28.08,7.69-28.08h3.1l7.79,28,7.09-28h3.7Z" transform="translate(124.96 72)"/><path id="Path_19" data-name="Path 19" class="cls-1" d="M71.93,580.65V547.44H91.69v3.15H75.43v11.33H90.21V565H75.43v12.51H92.67v3.16Z" transform="translate(124.96 72)"/><path id="Path_20" data-name="Path 20" class="cls-1" d="M131.87,563.15a7.59,7.59,0,0,0,5.13-7.09c0-6-4.83-8.62-9.41-8.62H115.07v33.21h12.27c6.16,0,11.48-2.77,11.48-9.32C138.82,566.55,135.72,563.9,131.87,563.15Zm-13.3-12.7h8.52c3.95,0,6.41,2.22,6.41,5.82s-2.61,5.66-6.46,5.66h-8.47Zm8.37,27.19h-8.37V564.83h8.13c5.18,0,8.62,2.12,8.62,6.36C135.32,575.62,132.56,577.64,126.94,577.64Z" transform="translate(124.96 72)"/><path id="Path_21" data-name="Path 21" class="cls-1" d="M170.24,549.85c-4.93,0-7.15,2.22-7.15,5.33,0,8.76,18.43,5.07,18.43,16.8,0,6.06-5,9.31-11.68,9.31a14.72,14.72,0,0,1-12-5.32l2.61-2.42a11.3,11.3,0,0,0,9.46,4.68c5.12,0,7.93-2.26,7.93-5.61,0-9.71-18.42-5.33-18.42-16.9,0-4.59,3.1-8.93,10.69-8.93a13.36,13.36,0,0,1,11.08,5.08l-2.46,2.32A10.14,10.14,0,0,0,170.24,549.85Z" transform="translate(124.96 72)"/><path id="Path_22" data-name="Path 22" class="cls-1" d="M204.16,580.65V547.44h3.5v33.21Z" transform="translate(124.96 72)"/><path id="Path_23" data-name="Path 23" class="cls-1" d="M243.17,550.59v30.06h-3.5V550.59H227.36v-3.15h28.08v3.15Z" transform="translate(124.96 72)"/><path id="Path_24" data-name="Path 24" class="cls-1" d="M275.13,580.65V547.44h19.75v3.15H278.63v11.33h14.78V565H278.63v12.51h17.24v3.16Z" transform="translate(124.96 72)"/><path id="Path_25" data-name="Path 25" class="cls-1" d="M354.67,546.8a14.75,14.75,0,0,1,12,5.47l-2.56,2.26a11.25,11.25,0,0,0-9.31-4.68c-7.93,0-11.48,7.15-11.48,14.19s3.55,14.19,11.48,14.19a11.25,11.25,0,0,0,9.31-4.68l2.56,2.27a14.82,14.82,0,0,1-12,5.47c-10.25,0-15-8.43-15-17.2S344.42,546.8,354.67,546.8Z" transform="translate(124.96 72)"/><path id="Path_26" data-name="Path 26" class="cls-1" d="M399.39,546.79c-10.45,0-15.77,8.19-15.77,17.2s5.32,17.3,15.77,17.3S415.15,573,415.15,564,409.83,546.79,399.39,546.79Zm0,31.44c-8,0-12.17-6.85-12.17-14.19s4.14-14.19,12.17-14.19,12.16,6.85,12.16,14.19S407.42,578.23,399.39,578.23Z" transform="translate(124.96 72)"/><path id="Path_27" data-name="Path 27" class="cls-1" d="M462.48,580.65V554l-10.25,16.5h-2.51l-10.25-16.11v26.21h-3.4V547h2.76l12.22,19.6L463.27,547H466v33.65Z" transform="translate(124.96 72)"/><path id="Path_28" data-name="Path 28" class="cls-1" d="M501.82,547.44H490.09v33.21h3.5V568.23h8.18c7,0,11-4,11-10.55C512.81,551.38,508.37,547.44,501.82,547.44Zm-.2,17.74h-8V550.44h8.08c4.63,0,7.64,3,7.63,7.34C509.3,562.52,506.69,565.18,501.62,565.18Z" transform="translate(124.96 72)"/><path id="Path_29" data-name="Path 29" class="cls-1" d="M542.3,546.94h-3l-13.69,33.7h3.84l4-10.2H548l4,10.2h3.89Zm-7.68,20.5L540.68,552l6.11,15.42Z" transform="translate(124.96 72)"/><path id="Path_30" data-name="Path 30" class="cls-1" d="M599.58,581.09,579,553.84v26.8h-3.4V547h2.56l20.64,27.4v-27h3.4v33.65Z" transform="translate(124.96 72)"/><path id="Path_31" data-name="Path 31" class="cls-1" d="M634.39,580.65V565.13l-12.51-17.69h4.28l10.1,14.29,10.1-14.29h4.19l-12.66,17.69v15.51Z" transform="translate(124.96 72)"/></g><g id="Group_5" data-name="Group 5"><path id="Path_32" data-name="Path 32" class="cls-1" d="M26.73,672.54V655L20,665.89H18.33l-6.75-10.6v17.26H9.35V650.39h1.81l8,12.91,8.05-12.91H29v22.16Z" transform="translate(124.96 72)"/><path id="Path_33" data-name="Path 33" class="cls-1" d="M57.88,650.36h-2l-9,22.18h2.53L52,665.83h9.57l2.65,6.71h2.57Zm-5.06,13.49,4-10.15,4,10.15Z" transform="translate(124.96 72)"/><path id="Path_34" data-name="Path 34" class="cls-1" d="M90.8,661.32l10.64-10.64h-3l-10.6,10.67,10.45,11.19h3.21Zm-6.13-10.64v21.86H87V650.68Z" transform="translate(124.96 72)"/><path id="Path_35" data-name="Path 35" class="cls-1" d="M119.84,672.54V650.68h2.3v21.86Z" transform="translate(124.96 72)"/><path id="Path_36" data-name="Path 36" class="cls-1" d="M158.71,672.84,145.15,654.9v17.64h-2.24V650.39h1.69l13.59,18V650.68h2.24v22.16Z" transform="translate(124.96 72)"/><path id="Path_37" data-name="Path 37" class="cls-1" d="M188.2,662.13h8.69v9.6a19,19,0,0,1-7,1.23c-7.1,0-10.76-4.28-10.76-11.32,0-5.83,3.11-11.38,9.86-11.38a9.73,9.73,0,0,1,7.88,3.6l-1.69,1.5a7.39,7.39,0,0,0-6.13-3.09c-5.22,0-7.55,4.71-7.55,9.35,0,5.61,2.5,9.34,8.59,9.34a13.28,13.28,0,0,0,4.64-.71v-6.1H188.2Z" transform="translate(124.96 72)"/><path id="Path_38" data-name="Path 38" class="cls-1" d="M243.09,672.54V662.32l-8.24-11.64h2.83l6.64,9.4,6.65-9.4h2.76l-8.33,11.64v10.22Z" transform="translate(124.96 72)"/><path id="Path_39" data-name="Path 39" class="cls-1" d="M278.55,650.26c-6.88,0-10.38,5.39-10.38,11.32S271.68,673,278.55,673s10.38-5.44,10.38-11.38S285.43,650.26,278.55,650.26Zm0,20.69c-5.28,0-8-4.5-8-9.34s2.73-9.34,8-9.34,8,4.51,8,9.34S283.84,671,278.55,671Z" transform="translate(124.96 72)"/><path id="Path_40" data-name="Path 40" class="cls-1" d="M307.59,665.18v-14.5h2.3v14.53c0,3.86,3,5.74,6.43,5.74,3.73,0,6.52-2,6.52-5.71V650.68h2.23v14.5c0,4.93-3.76,7.78-8.75,7.78C311.49,673,307.59,670.08,307.59,665.18Z" transform="translate(124.96 72)"/><path id="Path_41" data-name="Path 41" class="cls-1" d="M374,652.27c-3.24,0-4.7,1.46-4.7,3.5,0,5.77,12.13,3.34,12.13,11.06,0,4-3.31,6.13-7.69,6.13a9.67,9.67,0,0,1-7.88-3.5l1.72-1.59a7.46,7.46,0,0,0,6.23,3.08c3.37,0,5.22-1.49,5.22-3.7,0-6.39-12.13-3.5-12.13-11.12,0-3,2-5.87,7-5.87a8.79,8.79,0,0,1,7.3,3.33l-1.63,1.53A6.65,6.65,0,0,0,374,652.27Z" transform="translate(124.96 72)"/><path id="Path_42" data-name="Path 42" class="cls-1" d="M408.07,652.76v19.78h-2.31V652.76h-8.11v-2.08h18.49v2.07Z" transform="translate(124.96 72)"/><path id="Path_43" data-name="Path 43" class="cls-1" d="M438.66,650.36h-2l-9,22.18h2.54l2.62-6.71h9.57l2.66,6.71h2.57Zm-5.06,13.49,4-10.15,4,10.15Z" transform="translate(124.96 72)"/><path id="Path_44" data-name="Path 44" class="cls-1" d="M481.26,672.84,467.7,654.9v17.64h-2.24V650.39h1.69l13.59,18V650.68H483v22.16Z" transform="translate(124.96 72)"/><path id="Path_45" data-name="Path 45" class="cls-1" d="M511.66,650.68h-7.92v21.86h7.92c6.94,0,10.48-4.93,10.48-11S518.83,650.68,511.66,650.68Zm-.16,19.85h-5.45V652.69h5.45c5.06,0,8.27,3.5,8.26,8.92C519.76,666.8,517,670.53,511.5,670.53Z" transform="translate(124.96 72)"/><path id="Path_46" data-name="Path 46" class="cls-1" d="M570.15,650.26c-6.88,0-10.38,5.39-10.38,11.32S563.27,673,570.15,673s10.38-5.44,10.38-11.38S577,650.26,570.15,650.26Zm0,20.69c-5.29,0-8-4.5-8-9.34s2.72-9.34,8-9.34,8,4.51,8,9.34S575.44,671,570.15,671Z" transform="translate(124.96 72)"/><path id="Path_47" data-name="Path 47" class="cls-1" d="M599.19,665.18v-14.5h2.3v14.53c0,3.86,3,5.74,6.42,5.74,3.73,0,6.52-2,6.52-5.71V650.68h2.24v14.5c0,4.93-3.76,7.78-8.76,7.78C603.08,673,599.19,670.08,599.19,665.18Z" transform="translate(124.96 72)"/><path id="Path_48" data-name="Path 48" class="cls-1" d="M644.94,652.76v19.78h-2.31V652.76h-8.11v-2.08H653v2.07Z" transform="translate(124.96 72)"/></g><line id="Line_1" data-name="Line 1" class="cls-2" x1="124.96" y1="687.75" x2="781.03" y2="687.75"/></svg>